<svg width="22" height="22" viewBox="0 0 22 22" fill="none" xmlns="http://www.w3.org/2000/svg">
<path d="M19.7812 0.78125L17.125 3.4375L16.6875 2.96875C15.7154 1.99664 14.438 1.5 13.1562 1.5C11.8745 1.5 10.5971 1.99664 9.625 2.96875L8.90625 3.65625L8 4.5625L7.21875 3.78125L5.78125 5.21875L16.7812 16.2188L18.2188 14.7812L17.4375 14L19.0312 12.375C20.9755 10.4308 20.9755 7.25672 19.0312 5.3125L18.5625 4.875L21.2188 2.21875L19.7812 0.78125ZM13.1562 3.5C13.9238 3.5 14.6914 3.78511 15.2812 4.375L17.625 6.71875C18.8048 7.89853 18.8048 9.78897 17.625 10.9688L16 12.5625L9.4375 6L11.0312 4.375C11.6211 3.78511 12.3887 3.5 13.1562 3.5ZM5.21875 5.78125L3.78125 7.21875L4.5625 8L3.65625 8.90625L2.96875 9.625C1.02453 11.5692 1.02453 14.7433 2.96875 16.6875L3.40625 17.1562L0.78125 19.7812L2.21875 21.2188L4.84375 18.5938L5.3125 19.0312C7.25672 20.9755 10.4308 20.9755 12.375 19.0312L14 17.4375L14.7812 18.2188L16.2188 16.7812L5.21875 5.78125ZM6 9.4375L12.5625 16L10.9688 17.625C9.78897 18.8048 7.89853 18.8048 6.71875 17.625L4.375 15.2812C3.19522 14.1015 3.19522 12.211 4.375 11.0312L6 9.4375Z" fill="#B1E346"/>
</svg>
