<svg width="97" height="29" viewBox="0 0 97 29" fill="none" xmlns="http://www.w3.org/2000/svg">
<g clip-path="url(#clip0_80_10)">
<path d="M7.975 22L0.319 0.394998H4.002L10.266 18.839H9.541L15.776 0.394998H19.459L11.803 22H7.975ZM21.6816 22V6.311H24.9586V22H21.6816ZM21.6816 4.165V0.394998H24.9586V4.165H21.6816ZM41.144 27.8V18.81L41.666 19.419C41.1246 20.3663 40.3513 21.0913 39.346 21.594C38.3406 22.0967 37.2386 22.348 36.04 22.348C34.532 22.348 33.1786 21.9903 31.98 21.275C30.8006 20.5403 29.863 19.5543 29.167 18.317C28.4903 17.0797 28.152 15.6877 28.152 14.141C28.152 12.5943 28.5 11.2023 29.196 9.965C29.892 8.72767 30.8296 7.75133 32.009 7.036C33.1883 6.32067 34.5223 5.963 36.011 5.963C37.2676 5.963 38.3793 6.21433 39.346 6.717C40.3126 7.21967 41.0763 7.91567 41.637 8.805L41.289 9.559V6.311H44.392V27.8H41.144ZM36.359 19.303C37.2676 19.303 38.0796 19.0807 38.795 18.636C39.5296 18.1913 40.1 17.5823 40.506 16.809C40.9313 16.0163 41.144 15.127 41.144 14.141C41.144 13.155 40.9313 12.2753 40.506 11.502C40.1 10.7287 39.5296 10.1197 38.795 9.675C38.0796 9.23033 37.2676 9.008 36.359 9.008C35.4503 9.008 34.6286 9.23033 33.894 9.675C33.1593 10.1197 32.589 10.7287 32.183 11.502C31.777 12.2753 31.574 13.155 31.574 14.141C31.574 15.127 31.777 16.0163 32.183 16.809C32.589 17.5823 33.1496 18.1913 33.865 18.636C34.5996 19.0807 35.431 19.303 36.359 19.303ZM48.2177 22V6.311H51.4947V22H48.2177ZM48.2177 4.165V0.394998H51.4947V4.165H48.2177ZM60.9231 22.348C59.7438 22.348 58.7094 22.087 57.8201 21.565C56.9308 21.0237 56.2348 20.2793 55.7321 19.332C55.2488 18.3653 55.0071 17.2537 55.0071 15.997V6.311H58.2841V15.707C58.2841 16.4223 58.4291 17.0507 58.7191 17.592C59.0091 18.1333 59.4151 18.5587 59.9371 18.868C60.4591 19.158 61.0584 19.303 61.7351 19.303C62.4311 19.303 63.0401 19.1483 63.5621 18.839C64.0841 18.5297 64.4901 18.0947 64.7801 17.534C65.0894 16.9733 65.2441 16.316 65.2441 15.562V6.311H68.4921V22H65.3891V18.926L65.7371 19.332C65.3698 20.2987 64.7608 21.043 63.9101 21.565C63.0594 22.087 62.0638 22.348 60.9231 22.348ZM72.3183 22V6.311H75.4503V9.704L75.0443 9.182C75.373 8.11867 75.9723 7.31633 76.8423 6.775C77.7123 6.23367 78.708 5.963 79.8293 5.963C81.086 5.963 82.1976 6.30133 83.1643 6.978C84.1503 7.63533 84.8076 8.515 85.1363 9.617L84.2083 9.704C84.6723 8.44733 85.378 7.50967 86.3253 6.891C87.292 6.27233 88.394 5.963 89.6313 5.963C90.714 5.963 91.6903 6.21433 92.5603 6.717C93.4496 7.21967 94.1553 7.91567 94.6773 8.805C95.1993 9.69433 95.4603 10.7093 95.4603 11.85V22H92.1833V12.749C92.1833 11.9563 92.0383 11.2893 91.7483 10.748C91.4776 10.1873 91.091 9.762 90.5883 9.472C90.105 9.16267 89.5346 9.008 88.8773 9.008C88.22 9.008 87.64 9.16267 87.1373 9.472C86.6346 9.762 86.2383 10.1873 85.9483 10.748C85.6583 11.3087 85.5133 11.9757 85.5133 12.749V22H82.2653V12.749C82.2653 11.9563 82.1203 11.2893 81.8303 10.748C81.5596 10.1873 81.173 9.762 80.6703 9.472C80.187 9.16267 79.607 9.008 78.9303 9.008C78.273 9.008 77.693 9.16267 77.1903 9.472C76.6876 9.762 76.2913 10.1873 76.0013 10.748C75.7306 11.3087 75.5953 11.9757 75.5953 12.749V22H72.3183Z" fill="#18181B"/>
</g>
<defs>
<clipPath id="clip0_80_10">
<rect width="97" height="29" fill="white"/>
</clipPath>
</defs>
</svg>
